<svg width="159" height="40" viewBox="0 0 159 40" fill="none" xmlns="http://www.w3.org/2000/svg">
<path d="M49.648 8.6H52.016V28.952H64.56V31H49.648V8.6ZM74.6418 31.16C73.0204 31.16 71.5591 30.7973 70.2578 30.072C68.9564 29.3253 67.9324 28.3013 67.1858 27C66.4391 25.6987 66.0658 24.2267 66.0658 22.584C66.0658 20.9413 66.4391 19.4693 67.1858 18.168C67.9324 16.8667 68.9564 15.8533 70.2578 15.128C71.5591 14.4027 73.0204 14.04 74.6418 14.04C76.2631 14.04 77.7244 14.4027 79.0258 15.128C80.3271 15.8533 81.3404 16.8667 82.0658 18.168C82.8124 19.4693 83.1858 20.9413 83.1858 22.584C83.1858 24.2267 82.8124 25.6987 82.0658 27C81.3404 28.3013 80.3271 29.3253 79.0258 30.072C77.7244 30.7973 76.2631 31.16 74.6418 31.16ZM74.6418 29.144C75.8364 29.144 76.9031 28.8773 77.8418 28.344C78.8018 27.7893 79.5484 27.0107 80.0818 26.008C80.6151 25.0053 80.8818 23.864 80.8818 22.584C80.8818 21.304 80.6151 20.1627 80.0818 19.16C79.5484 18.1573 78.8018 17.3893 77.8418 16.856C76.9031 16.3013 75.8364 16.024 74.6418 16.024C73.4471 16.024 72.3698 16.3013 71.4098 16.856C70.4711 17.3893 69.7244 18.1573 69.1698 19.16C68.6364 20.1627 68.3698 21.304 68.3698 22.584C68.3698 23.864 68.6364 25.0053 69.1698 26.008C69.7244 27.0107 70.4711 27.7893 71.4098 28.344C72.3698 28.8773 73.4471 29.144 74.6418 29.144ZM90.0003 17.464C90.5336 16.3333 91.3229 15.48 92.3683 14.904C93.4349 14.328 94.7469 14.04 96.3043 14.04V16.248L95.7603 16.216C93.9896 16.216 92.6029 16.76 91.6003 17.848C90.5976 18.936 90.0963 20.4613 90.0963 22.424V31H87.8243V14.168H90.0003V17.464ZM114.918 23.288H100.838C100.966 25.0373 101.638 26.456 102.854 27.544C104.07 28.6107 105.606 29.144 107.462 29.144C108.507 29.144 109.467 28.9627 110.342 28.6C111.216 28.216 111.974 27.6613 112.614 26.936L113.894 28.408C113.147 29.304 112.208 29.9867 111.078 30.456C109.968 30.9253 108.742 31.16 107.398 31.16C105.67 31.16 104.134 30.7973 102.79 30.072C101.467 29.3253 100.432 28.3013 99.6858 27C98.9391 25.6987 98.5658 24.2267 98.5658 22.584C98.5658 20.9413 98.9178 19.4693 99.6218 18.168C100.347 16.8667 101.328 15.8533 102.566 15.128C103.824 14.4027 105.232 14.04 106.79 14.04C108.347 14.04 109.744 14.4027 110.982 15.128C112.219 15.8533 113.19 16.8667 113.894 18.168C114.598 19.448 114.95 20.92 114.95 22.584L114.918 23.288ZM106.79 15.992C105.168 15.992 103.803 16.5147 102.694 17.56C101.606 18.584 100.987 19.928 100.838 21.592H112.774C112.624 19.928 111.995 18.584 110.886 17.56C109.798 16.5147 108.432 15.992 106.79 15.992ZM140.566 14.04C142.678 14.04 144.332 14.648 145.526 15.864C146.742 17.08 147.35 18.872 147.35 21.24V31H145.078V21.464C145.078 19.7147 144.652 18.3813 143.798 17.464C142.966 16.5467 141.782 16.088 140.246 16.088C138.497 16.088 137.121 16.632 136.118 17.72C135.116 18.7867 134.614 20.2693 134.614 22.168V31H132.342V21.464C132.342 19.7147 131.916 18.3813 131.062 17.464C130.23 16.5467 129.036 16.088 127.478 16.088C125.75 16.088 124.374 16.632 123.35 17.72C122.348 18.7867 121.846 20.2693 121.846 22.168V31H119.574V14.168H121.75V17.24C122.348 16.216 123.18 15.4267 124.246 14.872C125.313 14.3173 126.54 14.04 127.926 14.04C129.334 14.04 130.55 14.3387 131.574 14.936C132.62 15.5333 133.398 16.4187 133.91 17.592C134.529 16.4827 135.414 15.6187 136.566 15C137.74 14.36 139.073 14.04 140.566 14.04Z" fill="#535353"/>
<path d="M154.536 31.256C153.661 31.256 152.925 30.9573 152.328 30.36C151.73 29.7627 151.432 29.016 151.432 28.12C151.432 27.2027 151.73 26.4667 152.328 25.912C152.925 25.336 153.661 25.048 154.536 25.048C155.41 25.048 156.146 25.336 156.744 25.912C157.341 26.4667 157.64 27.2027 157.64 28.12C157.64 29.016 157.341 29.7627 156.744 30.36C156.146 30.9573 155.41 31.256 154.536 31.256Z" fill="#FFB800"/>
<rect width="40" height="40" rx="16" fill="#FFB800"/>
<circle cx="28" cy="12" r="12" fill="white"/>
</svg>
